<svg xmlns="http://www.w3.org/2000/svg"  viewBox="0 0 64 64" width="96px" height="96px"><g data-name="Fill Outline"><polygon fill="#c4f236" points="32 18 28 10 36 10 32 18"/><polygon fill="#f89c8d" points="45.627 16.624 40.152 9.551 48 8 45.627 16.624"/><polygon fill="#aae1f9" points="58.257 12.913 51.572 6.971 59 4 58.257 12.913"/><polygon fill="#f9e109" points="18.373 16.624 23.848 9.551 16 8 18.373 16.624"/><polygon fill="#f89c8d" points="5.743 12.913 12.428 6.971 5 4 5.743 12.913"/><polygon fill="#57b7eb" points="29.464 42.196 28.464 40.464 25 42.464 26 44.196 25.268 46.928 30.268 55.588 37.196 51.588 32.196 42.928 29.464 42.196"/><path fill="#4891d3" d="M29.065,44.919a1.959,1.959,0,0,1-.538-1.957l.437-1.632-.5-.866-3.464,2L26,44.2l-.732,2.732,5,8.66,6.928-4-3.482-6.03A4.16,4.16,0,0,1,29.065,44.919Z"/><rect width="8" height="4" x="26.732" y="46.392" fill="#c4f236" transform="rotate(-30 30.731 48.392)"/><path fill="#7ab92d" d="M33.714,45.558a4.157,4.157,0,0,1-2.672.346L26.268,48.66l2,3.464,6.928-4Z"/><path fill="#f89c8d" d="M45,51h4a0,0,0,0,1,0,0v4a2,2,0,0,1-2,2h0a2,2,0,0,1-2-2V51A0,0,0,0,1,45,51Z"/><path fill="#f89c8d" d="M15,51h4a0,0,0,0,1,0,0v4a2,2,0,0,1-2,2h0a2,2,0,0,1-2-2V51A0,0,0,0,1,15,51Z"/><polygon fill="#aae1f9" points="38.867 61 27.133 61 25 49 41 49 38.867 61"/><rect width="4" height="4" x="23.732" y="37.732" fill="#c4f236" transform="rotate(-30 25.732 39.733)"/><path fill="#f8664f" d="M47,53V51H45v4a2,2,0,0,0,4,0A2,2,0,0,1,47,53Z"/><path fill="#f8664f" d="M17,53V51H15v4a2,2,0,0,0,4,0A2,2,0,0,1,17,53Z"/><path fill="#57b7eb" d="M38.512,57a9.994,9.994,0,0,1-9.789-8H25l2.133,12H38.867l.711-4Z"/><path fill="#a1d51c" d="M27.732,39.464A2,2,0,0,1,25,38.732l-.384-.665L23,39l2,3.464,3.464-2L27.848,39.4Z"/><g><polygon fill="#f89c8d" points="61 61 51 61 56 47 61 61"/><polygon fill="#c4f236" points="58.059 52.765 53.339 54.45 51.556 59.444 59.439 56.629 58.059 52.765"/><circle cx="56" cy="45" r="2" fill="#aae1f9"/><path fill="#f8664f" d="M55,53V49.8L51,61H61l-.732-2.049A6,6,0,0,1,55,53Z"/><path fill="#a1d51c" d="M57.047,57.483a5.955,5.955,0,0,1-1.97-3.653l-1.738.62-.426,1.194-1.357,3.8Z"/><path fill="#57b7eb" d="M57,46a1.992,1.992,0,0,1-1.82-2.82,2,2,0,1,0,2.64,2.64A1.99,1.99,0,0,1,57,46Z"/></g><polygon fill="#aae1f9" points="13 61 3 61 8 47 13 61"/><path fill="#a1d51c" d="M31.317,12.814A2.964,2.964,0,0,1,31.392,10H28l4,8,1.778-3.557A2.938,2.938,0,0,1,31.317,12.814Z"/><path fill="#f8664f" d="M44.184,12.036a2.963,2.963,0,0,1-.258-3.231l-3.774.746,5.475,7.073.944-3.43A2.945,2.945,0,0,1,44.184,12.036Z"/><path fill="#57b7eb" d="M56.214,9.02a2.974,2.974,0,0,1-.631-3.653l-4.011,1.6,6.685,5.942.263-3.152A2.939,2.939,0,0,1,56.214,9.02Z"/><path fill="#fcbc04" d="M18.554,11a2.954,2.954,0,0,1,.375-2.417L16,8l2.373,8.624,2.676-3.458A2.962,2.962,0,0,1,18.554,11Z"/><path fill="#f8664f" d="M6.81,7.03a2.952,2.952,0,0,1,.606-2.064L5,4l.743,8.913L9.319,9.734A2.977,2.977,0,0,1,6.81,7.03Z"/><path fill="#57b7eb" d="M7,53V49.8L3,61H13l-.732-2.049A6,6,0,0,1,7,53Z"/><g data-name="Outline copy"><path fill="#39519d" d="M2.494,3.863c.517.3,1.04.586,1.564.871L4.334,8.05a1,1,0,0,0,1.993-.166l-.2-2.355L10.554,7.3,5.078,12.166a1,1,0,1,0,1.329,1.495l5.885-5.23q1.5.539,3.066,1l2.051,7.454a1,1,0,0,0,.771.715.975.975,0,0,0,.194.02,1,1,0,0,0,.791-.388l4.614-5.961c1.333.19,2.657.334,3.955.43l3.371,6.742a1,1,0,0,0,1.79,0l3.371-6.742c1.3-.1,2.622-.24,3.955-.43l4.614,5.961a1,1,0,1,0,1.582-1.225l-4.484-5.793L46.606,9.3l-.628,2.282a1,1,0,0,0,1.929.531l.736-2.673c1.038-.309,2.062-.645,3.065-1l5.885,5.23a1,1,0,0,0,.664.253,1,1,0,0,0,1-.917l.688-8.263c.524-.285,1.047-.569,1.564-.871a1,1,0,0,0-1.012-1.726c-.516.3-1.041.588-1.565.871a1.05,1.05,0,0,0-.3.063L51.2,6.042a1,1,0,0,0-.581.651q-.934.327-1.891.623a1,1,0,0,0-.923-.3L39.958,8.57a1,1,0,0,0-.743.63,1.033,1.033,0,0,0-.046.2q-1.131.145-2.243.245a1.04,1.04,0,0,0-.075-.167A1,1,0,0,0,36,9H28a1,1,0,0,0-.851.474,1.04,1.04,0,0,0-.075.167q-1.113-.1-2.243-.245a1.033,1.033,0,0,0-.046-.2,1,1,0,0,0-.743-.63L16.194,7.019a1,1,0,0,0-.923.3q-.957-.3-1.891-.623a1,1,0,0,0-.581-.651L5.372,3.071a1.05,1.05,0,0,0-.3-.063c-.524-.283-1.049-.567-1.565-.871A1,1,0,0,0,2.494,3.863ZM57.869,5.529l-.442,5.308L53.446,7.3ZM34.382,11,32,15.764,29.618,11Zm-12.315-.782-3.26,4.212L17.394,9.3Z"/><path fill="#39519d" d="M49,50H45a1,1,0,0,0-1,1v4a3,3,0,0,0,2,2.816V60H45a1,1,0,0,0,0,2h4a1,1,0,0,0,0-2H48V57.816A3,3,0,0,0,50,55V51A1,1,0,0,0,49,50Zm-1,5a1,1,0,0,1-2,0V52h2Z"/><path fill="#39519d" d="M19,50H15a1,1,0,0,0-1,1v4a3,3,0,0,0,2,2.816V60H15a1,1,0,0,0,0,2h4a1,1,0,0,0,0-2H18V57.816A3,3,0,0,0,20,55V51A1,1,0,0,0,19,50Zm-1,5a1,1,0,0,1-2,0V52h2Z"/><path fill="#39519d" d="M41,48H36.279l-3.217-5.572a1,1,0,0,0-.607-.466l-2.332-.625-.793-1.373-2-3.464a1,1,0,0,0-1.366-.366l-3.464,2a1,1,0,0,0-.366,1.366l2,3.464.793,1.373L24.3,46.669a1,1,0,0,0,.1.759l.36.625a.984.984,0,0,0-.529.3,1,1,0,0,0-.217.817l1.333,7.5a2.027,2.027,0,0,1-1.592-.434c-.628-.627-.611-1.936.044-3.415a1,1,0,0,0-1.828-.81c-1.014,2.287-.875,4.4.37,5.64A3.78,3.78,0,0,0,25.1,58.7a5.691,5.691,0,0,0,.6-.041l.448,2.52a1,1,0,0,0,.984.825H38.867a1,1,0,0,0,.984-.825l.711-4a1,1,0,0,0-1.969-.35L38.029,60H27.971l-.327-1.84a11.653,11.653,0,0,0,3.892-2.624A10.458,10.458,0,0,0,34.62,50h5.187l-.5,2.825a1,1,0,1,0,1.968.35l.711-4A1,1,0,0,0,41,48ZM29.412,48l3.418-1.974L33.97,48Zm2.126-4.213.292.507-5.2,3-.293-.507.625-2.332a1,1,0,0,0-.1-.759l-.5-.866,1.732-1,.5.866a1,1,0,0,0,.607.466ZM26.1,38.366l1,1.732-.866.5-.866.5-1-1.732Zm4.024,15.756a10.035,10.035,0,0,1-2.835,2.027L26.193,50h6.392A9.017,9.017,0,0,1,30.122,54.122Z"/><path fill="#39519d" d="M61.942,60.664l-1.561-4.371h0l-3.074-8.605a3,3,0,1,0-2.614,0L50.058,60.664A1,1,0,0,0,51,62H61a1,1,0,0,0,.942-1.336ZM56,44a1,1,0,1,1-1,1A1,1,0,0,1,56,44Zm.781,8.159-1.79.639L56,49.973ZM52.419,60l1.7-4.767,3.331-1.19.708,1.98L56.1,56.76a1,1,0,0,0,.672,1.884l2.063-.737L59.581,60Z"/><path fill="#39519d" d="M9.014,46.865A2,2,0,0,1,11,45a1,1,0,0,0,0-2,3.959,3.959,0,0,0-2,.556V43a1,1,0,0,0-2,0v.556A3.959,3.959,0,0,0,5,43a1,1,0,0,0,0,2,2,2,0,0,1,1.986,1.865l-4.928,13.8A1,1,0,0,0,3,62H8a1,1,0,0,0,0-2H4.419l2.175-6.09A.988.988,0,0,0,7,54a1,1,0,0,0,1-1,.986.986,0,0,0-.742-.948L8,49.973l1.809,5.066A.984.984,0,0,0,9,56a1,1,0,0,0,1,1,.981.981,0,0,0,.464-.129l1.594,4.465A1,1,0,0,0,13,62a1,1,0,0,0,.942-1.336Z"/><circle cx="7" cy="58" r="1" fill="#39519d"/><path fill="#39519d" d="M35.835,33.986a15.4,15.4,0,0,1,9.291,5.327l1.106,1.327a1,1,0,1,0,1.536-1.28l-1.106-1.327a17.386,17.386,0,0,0-10.5-6.019,1,1,0,1,0-.33,1.972Z"/><path fill="#39519d" d="M53,39a1,1,0,0,0,.919-1.394L52.81,35.019a15.361,15.361,0,0,1-1.035-8.59l.211-1.264a1,1,0,1,0-1.972-.33L49.8,26.1a17.35,17.35,0,0,0,1.169,9.707l1.109,2.587A1,1,0,0,0,53,39Z"/><path fill="#39519d" d="M51,42a1,1,0,0,0,.851-1.524l-8-13a1,1,0,0,0-1.7,1.048l8,13A1,1,0,0,0,51,42Z"/><path fill="#39519d" d="M36,28a1,1,0,0,0,1-1V26h1a1,1,0,0,0,0-2H37V23a1,1,0,0,0-2,0v1H34a1,1,0,0,0,0,2h1v1A1,1,0,0,0,36,28Z"/><path fill="#39519d" d="M29,35a1,1,0,0,0,1-1V33h1a1,1,0,0,0,0-2H30V30a1,1,0,0,0-2,0v1H27a1,1,0,0,0,0,2h1v1A1,1,0,0,0,29,35Z"/><path fill="#39519d" d="M46,19a1,1,0,0,0-1,1v1H44a1,1,0,0,0,0,2h1v1a1,1,0,0,0,2,0V23h1a1,1,0,0,0,0-2H47V20A1,1,0,0,0,46,19Z"/><circle cx="18" cy="37" r="1" fill="#39519d"/><circle cx="40" cy="30" r="1" fill="#39519d"/><circle cx="55" cy="20" r="1" fill="#39519d"/><path fill="#39519d" d="M22.986,30.835a1,1,0,0,0-1.151-.821,17.386,17.386,0,0,0-10.5,6.019L10.232,37.36a1,1,0,1,0,1.536,1.28l1.106-1.327a15.4,15.4,0,0,1,9.291-5.327A1,1,0,0,0,22.986,30.835Z"/><path fill="#39519d" d="M4.081,35.606a1,1,0,1,0,1.838.788l1.109-2.587A17.35,17.35,0,0,0,8.2,24.1l-.211-1.265a1,1,0,0,0-1.972.33l.211,1.264a15.361,15.361,0,0,1-1.035,8.59Z"/><path fill="#39519d" d="M6.476,39.852a1,1,0,0,0,1.376-.328l8-13a1,1,0,0,0-1.7-1.048l-8,13A1,1,0,0,0,6.476,39.852Z"/><path fill="#39519d" d="M23,24h1a1,1,0,0,0,0-2H23V21a1,1,0,0,0-2,0v1H20a1,1,0,0,0,0,2h1v1a1,1,0,0,0,2,0Z"/><path fill="#39519d" d="M12,17a1,1,0,0,0-1,1v1H10a1,1,0,0,0,0,2h1v1a1,1,0,0,0,2,0V21h1a1,1,0,0,0,0-2H13V18A1,1,0,0,0,12,17Z"/><circle cx="28" cy="24" r="1" fill="#39519d"/><circle cx="18" cy="28" r="1" fill="#39519d"/><circle cx="3" cy="18" r="1" fill="#39519d"/><circle cx="56" cy="29" r="1" fill="#39519d"/><circle cx="40" cy="19" r="1" fill="#39519d"/></g></g></svg>