<svg xmlns="http://www.w3.org/2000/svg"  viewBox="0 0 512 512" width="96px" height="96px"><path fill="#00efd1" d="M443.8,83.8h30.24l15.17,131.88c2,17.33-12.34,32.46-30.75,32.46H334.95c-18.41,0-32.74-15.13-30.75-32.46L315.78,115l3.59-31.2H443.8Z"/><path fill="#fedb41" d="M380.44,438.6v.12a54.787,54.787,0,0,1-54.78,54.73h-.18c-1.26,0-2.51-.05-3.75-.14a54.784,54.784,0,0,1-50.97-54.71V403.18H87.15v-.49L89.1,115H315.78L304.2,215.68c-1.99,17.33,12.34,32.46,30.75,32.46h45.49ZM163.76,215.84c9.73,0,17.61-7.51,17.61-16.79s-7.88-16.79-17.61-16.79-17.6,7.52-17.6,16.79S154.04,215.84,163.76,215.84Zm0,69.54c9.73,0,17.61-7.52,17.61-16.79s-7.88-16.8-17.61-16.8-17.6,7.52-17.6,16.8S154.04,285.38,163.76,285.38Zm0,69.54c9.73,0,17.61-7.52,17.61-16.8s-7.88-16.79-17.61-16.79-17.6,7.52-17.6,16.79S154.04,354.92,163.76,354.92Z"/><path fill="#00acea" d="M321.73,493.31l-.01.14H77.39A54.8,54.8,0,0,1,22.6,438.72V403.18H270.76V438.6A54.784,54.784,0,0,0,321.73,493.31Z"/><path fill="#00efd1" d="M181.37,199.05c0,9.28-7.88,16.79-17.61,16.79s-17.6-7.51-17.6-16.79,7.88-16.79,17.6-16.79S181.37,189.78,181.37,199.05Z"/><path fill="#00efd1" d="M181.37,268.59c0,9.27-7.88,16.79-17.61,16.79s-17.6-7.52-17.6-16.79,7.88-16.8,17.6-16.8S181.37,259.31,181.37,268.59Z"/><path fill="#00efd1" d="M181.37,338.12c0,9.28-7.88,16.8-17.61,16.8s-17.6-7.52-17.6-16.8,7.88-16.79,17.6-16.79S181.37,328.85,181.37,338.12Z"/><path fill="#083863" d="M163.76,243.79c-14.116,0-25.6,11.125-25.6,24.8s11.484,24.79,25.6,24.79,25.61-11.121,25.61-24.79S177.881,243.79,163.76,243.79Zm0,33.59c-5.294,0-9.6-3.943-9.6-8.79s4.306-8.8,9.6-8.8,9.61,3.948,9.61,8.8S169.059,277.38,163.76,277.38Z"/><path fill="#083863" d="M321.77,261H215.11a8,8,0,0,0,0,16H321.77a8,8,0,0,0,0-16Z"/><path fill="#083863" d="M163.76,174.26c-14.116,0-25.6,11.12-25.6,24.79s11.484,24.79,25.6,24.79,25.61-11.121,25.61-24.79S177.881,174.26,163.76,174.26Zm0,33.58c-5.294,0-9.6-3.944-9.6-8.79s4.306-8.79,9.6-8.79,9.61,3.943,9.61,8.79S169.059,207.84,163.76,207.84Z"/><path fill="#083863" d="M163.76,313.33c-14.116,0-25.6,11.121-25.6,24.79s11.484,24.8,25.6,24.8,25.61-11.125,25.61-24.8S177.881,313.33,163.76,313.33Zm0,33.59c-5.294,0-9.6-3.948-9.6-8.8s4.306-8.79,9.6-8.79,9.61,3.943,9.61,8.79S169.059,346.92,163.76,346.92Z"/><path fill="#083863" d="M321.77,330H215.11a8,8,0,0,0,0,16H321.77a8,8,0,0,0,0-16Z"/><path fill="#083863" d="M481.988,82.986A7.915,7.915,0,0,0,474.04,76H452V61.84a49.986,49.986,0,0,0-15.909-36.359A55.283,55.283,0,0,0,397.945,10.55C368.329,10.55,344,33.559,344,61.84V76H319.37a7.915,7.915,0,0,0-7.948,6.985L308.648,107H89.1a7.924,7.924,0,0,0-8,7.856L79.2,395H22.6c-4.418,0-7.6,3.762-7.6,8.18v35.551a62.4,62.4,0,0,0,60,62.647V501H322v.32c1,.081,2.265-.32,3.48-.32h.18A62.087,62.087,0,0,0,388,438.72V256h70.46a39.556,39.556,0,0,0,29.621-13.013,35.688,35.688,0,0,0,9.077-28.206ZM360,61.84c0-19.459,17.1-35.29,37.895-35.29a39.241,39.241,0,0,1,27.074,10.522A34.225,34.225,0,0,1,436,61.84V76H360ZM31,438.72V411H263v27.592C263,457.085,270.839,474,283.752,485H77.39A46.114,46.114,0,0,1,31,438.72Zm341-.008A46.084,46.084,0,0,1,325.6,485h-.12c-1.013,0-1.96.185-3.081.1A46.6,46.6,0,0,1,279,438.6V403.18a8.364,8.364,0,0,0-8.24-8.18H95.2l1.845-272H306.808l-7.828,68H215.11a8,8,0,0,0,0,16h82.03l-.888,7.743a35.77,35.77,0,0,0,9.09,28.241A39.563,39.563,0,0,0,334.95,256H372ZM476.136,232.341A23.548,23.548,0,0,1,458.46,240H334.95a23.54,23.54,0,0,1-17.666-7.652,19.8,19.8,0,0,1-5.136-15.689L326.5,92H344v11.49a8,8,0,1,0,16,0V92h76v11.49a8,8,0,1,0,16,0V92h14.908l14.355,124.662A19.78,19.78,0,0,1,476.136,232.341Z"/></svg>