<svg width="150" height="64" viewBox="0 0 180 75" fill="none" xmlns="http://www.w3.org/2000/svg">
<path d="M99.863 53.8168C107.404 53.8168 112.097 48.7719 112.097 40.7035V40.6684C112.097 32.6176 107.386 27.5727 99.863 27.5727C92.3572 27.5727 87.6287 32.6 87.6287 40.6684V40.7035C87.6287 48.7719 92.322 53.8168 99.863 53.8168ZM99.863 49.3168C95.697 49.3168 93.0427 46.0121 93.0427 40.7035V40.6684C93.0427 35.3598 95.7146 32.0727 99.863 32.0727C104.029 32.0727 106.683 35.3774 106.683 40.6684V40.7035C106.683 45.9594 104.082 49.3168 99.863 49.3168ZM115.209 53.3774H120.342V28.0121H115.209V53.3774ZM126.476 32.1078C128.023 32.1078 129.219 30.8949 129.219 29.436C129.219 27.977 128.023 26.7641 126.476 26.7641C124.929 26.7641 123.734 27.977 123.734 29.436C123.734 30.8949 124.929 32.1078 126.476 32.1078ZM123.91 53.3774H129.043V34.5336H123.91V53.3774ZM137.463 53.3774H143.246L149.715 34.5336H144.353L140.469 48.8422H140.363L136.426 34.5336H130.941L137.463 53.3774ZM159.418 53.7641C164.797 53.7641 167.398 50.5824 167.978 47.8051L168.031 47.6117H163.32L163.285 47.7172C162.916 48.7719 161.633 49.9321 159.523 49.9321C156.904 49.9321 155.269 48.1742 155.217 45.1684H168.189V43.5863C168.189 37.891 164.726 34.1469 159.207 34.1469C153.687 34.1469 150.154 37.9789 150.154 43.9731V43.9906C150.154 50.0199 153.652 53.7641 159.418 53.7641ZM159.295 37.9789C161.422 37.9789 162.951 39.3324 163.267 41.934H155.269C155.603 39.3852 157.185 37.9789 159.295 37.9789Z" fill="white"/>
<path fill-rule="evenodd" clip-rule="evenodd" d="M69.6776 71.5561C69.6776 73.3017 55.5787 74.717 38.1869 74.717C20.7952 74.717 6.69629 73.3017 6.69629 71.5561C6.69629 69.8105 20.7952 68.3952 38.1869 68.3952C55.5787 68.3952 69.6776 69.8105 69.6776 71.5561Z" fill="#D04638"/>
<path fill-rule="evenodd" clip-rule="evenodd" d="M69.4036 23.5209C68.2733 13.9413 61.8084 6.0578 50.1874 0.0892136C49.8192 -0.100036 49.3131 0.0248851 49.1569 0.340517L47.9789 2.71872C47.8796 2.91934 47.9442 3.14547 48.1444 3.29703H48.1446C48.2499 3.3724 58.6801 10.9058 57.4247 17.0693C57.0707 18.807 55.7913 20.2916 53.6109 21.5017C52.5431 22.0943 51.351 22.5444 50.1018 22.876C47.1664 23.6551 39.1696 26.1275 36.1207 30.611C36.0971 30.6459 36.0793 30.6821 36.0666 30.7187C32.8527 29.8171 29.1231 29.246 25.8854 29.9961C23.0497 30.6535 20.9797 32.2324 19.7329 34.689C18.8793 36.3708 18.5564 38.2935 18.7734 40.4037C18.9362 41.9853 19.3555 43.8415 20.3197 45.5172C12.9635 47.4574 9.6548 51.468 8.17198 54.5786C6.48404 58.12 6.73894 61.2011 6.75074 61.3309C6.80202 61.8941 6.89535 62.4317 7.01143 62.9554C7.00628 62.99 7.00542 63.0254 7.0095 63.0611C7.01314 63.0933 7.3573 66.2953 5.18767 67.75C4.17152 68.4311 2.70844 68.6247 0.840917 68.325C0.464795 68.2635 0.0948948 68.4465 0.0152934 68.7316C-0.0645227 69.0164 0.175998 69.2963 0.552121 69.3567C1.22197 69.4641 1.85428 69.5179 2.44754 69.5179C3.91233 69.5175 5.13983 69.1907 6.11114 68.5395C7.18672 67.8182 7.76968 66.8075 8.08186 65.8442C8.60131 66.7927 9.25743 67.6545 10.0665 68.4165C10.6366 68.9303 10.7152 68.9896 11.123 69.2942C11.7575 69.764 12.4567 70.1907 13.2257 70.5705C16.7662 72.3188 21.3082 72.9117 25.8422 72.9117C34.0521 72.9117 42.2296 70.9683 44.3849 70.4167C45.439 71.6836 47.2456 72.4981 49.2785 72.5639C49.9868 72.5868 50.7841 72.6024 51.644 72.6024C54.1001 72.6024 57.0642 72.475 59.9029 72.029C61.7586 71.7372 63.2955 70.8226 64.1198 69.5198C64.9469 68.2131 64.924 66.7277 64.0578 65.4452C61.7573 62.0392 59.8675 55.7352 63.9267 45.0453C64.5131 43.5007 65.2463 41.8885 66.1686 40.116C66.8687 38.7703 68.0493 36.1916 68.8204 32.8742C68.9169 32.6386 68.9586 32.4947 68.9609 32.485C68.9815 32.4089 68.9777 32.334 68.956 32.2632C69.4997 29.685 69.7786 26.7009 69.4036 23.5209Z" fill="#D04638"/>
<path fill-rule="evenodd" clip-rule="evenodd" d="M68.2424 27.3015V27.3036C68.1789 29.1198 67.9221 30.8336 67.5681 32.3987C67.2808 33.2586 65.2826 38.0796 57.1521 37.0418C57.4643 36.4035 58.1938 35.9725 58.2103 35.962C58.5143 35.7885 58.575 35.462 58.3459 35.2318C58.1191 34.9995 57.6853 34.9535 57.3784 35.1272C57.3177 35.1606 55.875 35.9935 55.6594 37.2762C55.5324 38.0231 55.8364 38.7512 56.5631 39.4396C56.6987 39.5694 56.9004 39.6363 57.1021 39.6363C57.2542 39.6363 57.4061 39.5987 57.5334 39.5213C57.8318 39.3413 57.8816 39.0129 57.6441 38.7868C57.398 38.5545 57.2265 38.3265 57.1244 38.0985C57.9174 38.1925 58.6609 38.2387 59.3545 38.2387C62.8147 38.2387 65.0781 37.1631 66.5318 35.9412C65.9679 37.5146 65.3628 38.8077 64.882 39.7325C63.945 41.5363 63.196 43.1788 62.5991 44.7565C58.4897 55.5806 60.3439 62.113 62.7015 65.7287C62.7429 65.7937 62.7871 65.8585 62.8287 65.9212C63.4945 66.911 63.5112 68.0575 62.8729 69.0683C62.2371 70.0748 61.0515 70.7798 59.6227 71.0036C55.9276 71.5854 51.9922 71.6042 49.3363 71.5184C48.883 71.5038 48.4438 71.4409 48.029 71.3344C46.6805 70.9911 45.5888 70.194 45.0885 69.1331C43.3473 65.4212 42.8167 60.0563 42.814 60.0018C42.7863 59.713 42.4548 59.4955 42.0733 59.5184C41.6948 59.5394 41.4073 59.7884 41.435 60.0772C41.4571 60.303 41.9795 65.6179 43.7784 69.4637C40.2161 70.3467 23.1284 74.2134 13.9778 69.6938C13.0962 69.2587 12.3114 68.7523 11.6261 68.181C11.6261 68.179 11.6233 68.179 11.6233 68.179C9.56435 66.4652 8.39243 64.1468 8.13003 61.2593C8.12724 61.2301 7.88414 58.2378 9.48969 54.8984C11.0982 51.5443 13.906 49.0543 17.8526 47.4641C18.8142 47.077 19.8424 46.7422 20.9396 46.4618C21.7494 47.5457 22.8383 48.506 24.3001 49.1966C25.8037 49.9058 27.5697 50.2595 29.587 50.2595C30.2228 50.2595 30.886 50.2239 31.5715 50.1528H31.5768C33.2407 49.9812 35.0454 49.6026 36.991 49.0166C37.3448 48.9099 37.5188 48.6064 37.3779 48.3387C37.2369 48.0687 36.8333 47.937 36.4797 48.0458C31.6185 49.5104 27.7658 49.5983 25.0298 48.3093C21.5061 46.6459 20.4311 43.0469 20.152 40.3227C19.9501 38.3683 20.2432 36.6002 21.0225 35.0645C22.1086 32.9239 23.8802 31.5555 26.2871 30.9968C33.0721 29.4234 42.8749 34.5412 42.9717 34.5914C43.2864 34.7589 43.7151 34.7003 43.9333 34.4618C44.1517 34.2254 44.0771 33.8989 43.7619 33.7336C43.549 33.6207 40.8821 32.2291 37.3365 31.0993C37.3474 31.0888 37.3586 31.0784 37.3639 31.0657C38.3784 29.5886 40.0228 28.3352 41.8439 27.3015C45.2986 25.3388 49.3778 24.1714 50.9337 23.7696C51.329 23.667 52.2822 23.3531 52.5697 23.2339C56.193 21.7378 58.2822 19.7187 58.7907 17.2287C60.0373 11.1083 51.2929 4.18029 49.4247 2.7805L50.1405 1.33473C65.0728 9.2629 68.5244 19.2772 68.2424 27.3015Z" fill="white"/>
<path fill-rule="evenodd" clip-rule="evenodd" d="M48.4362 31.0441C48.4094 31.0441 48.3821 31.043 48.3549 31.0407C47.976 31.0069 47.7048 30.7472 47.749 30.4601C47.8936 29.5283 49.031 27.7661 52.3045 27.7661C52.6862 27.7661 52.9954 28.0002 52.9954 28.2892C52.9954 28.578 52.6862 28.8123 52.3045 28.8123C49.4286 28.8123 49.1327 30.5097 49.1217 30.582C49.0805 30.8482 48.7819 31.0441 48.4362 31.0441Z" fill="#D12751"/>
<path fill-rule="evenodd" clip-rule="evenodd" d="M40.3034 39.9332C40.7158 38.9162 40.1511 37.821 38.9412 37.2797C35.3604 35.6772 28.1632 33.2337 26.6716 38.6467C26.6716 38.6467 24.4365 45.7949 31.7886 45.6698C35.5481 45.6058 38.7959 43.651 39.8996 40.9292L40.3034 39.9332Z" fill="#FF7465"/>
<path fill-rule="evenodd" clip-rule="evenodd" d="M62.8728 69.0683C62.237 70.0748 61.0516 70.7798 59.6229 71.0038C55.9277 71.5854 51.9921 71.6042 49.3362 71.5184C48.8831 71.5038 48.4437 71.4409 48.0289 71.3344C48.3358 70.7317 49.8559 68.2858 53.5894 70.0727C53.5894 70.0727 54.2142 67.1977 58.8268 68.3087C58.8268 68.3087 59.5203 65.7308 62.7013 65.7287C62.743 65.7937 62.7872 65.8585 62.8286 65.9212C63.4944 66.911 63.5113 68.0575 62.8728 69.0683Z" fill="#F5E7DF"/>
<path fill-rule="evenodd" clip-rule="evenodd" d="M43.762 33.7336C43.5491 33.6207 40.8821 32.2292 37.3365 31.0994C37.3475 31.0888 37.3586 31.0784 37.364 31.0658C38.3782 29.5885 40.0226 28.3352 41.844 27.3016C39.0528 30.6033 43.762 33.7336 43.762 33.7336Z" fill="#F5E7DF"/>
<path fill-rule="evenodd" clip-rule="evenodd" d="M31.5768 50.1528C31.5768 50.1528 24.3691 52.5653 17.8525 47.464C18.8142 47.0769 19.8424 46.7421 20.9394 46.4617C21.7491 47.5457 22.838 48.5061 24.3 49.1965C25.8035 49.9059 27.5695 50.2595 29.587 50.2595C30.2225 50.2595 30.8859 50.224 31.5715 50.1528H31.5768Z" fill="#F5E7DF"/>
<path fill-rule="evenodd" clip-rule="evenodd" d="M68.2425 27.3037C68.1789 29.1198 67.9221 30.8334 67.5681 32.3988C67.2808 33.2586 65.2826 38.0795 57.1521 37.0418C57.1521 37.0418 66.9051 35.8345 68.2425 27.3037Z" fill="#F5E7DF"/>
<path fill-rule="evenodd" clip-rule="evenodd" d="M43.7788 69.4638C40.2162 70.3468 23.1287 74.2135 13.978 69.694C13.0966 69.2586 12.3117 68.7524 11.6262 68.1811C20.014 71.5122 29.9219 70.1522 35.3552 67.2082C40.5342 64.4021 41.4351 60.0772 41.4351 60.0772C41.4575 60.3031 41.9797 65.6179 43.7788 69.4638Z" fill="#F5E7DF"/>
</svg>
