<svg width="150" height="64" viewBox="0 0 150 64" fill="none" xmlns="http://www.w3.org/2000/svg">
<path d="M59.0469 45.3906C65.75 45.3906 69.9219 40.9062 69.9219 33.7344V33.7031C69.9219 26.5469 65.7344 22.0625 59.0469 22.0625C52.375 22.0625 48.1719 26.5312 48.1719 33.7031V33.7344C48.1719 40.9062 52.3438 45.3906 59.0469 45.3906ZM59.0469 41.3906C55.3438 41.3906 52.9844 38.4531 52.9844 33.7344V33.7031C52.9844 28.9844 55.3594 26.0625 59.0469 26.0625C62.75 26.0625 65.1094 29 65.1094 33.7031V33.7344C65.1094 38.4062 62.7969 41.3906 59.0469 41.3906ZM72.6875 45H77.25V22.4531H72.6875V45ZM82.7031 26.0938C84.0781 26.0938 85.1406 25.0156 85.1406 23.7188C85.1406 22.4219 84.0781 21.3438 82.7031 21.3438C81.3281 21.3438 80.2656 22.4219 80.2656 23.7188C80.2656 25.0156 81.3281 26.0938 82.7031 26.0938ZM80.4219 45H84.9844V28.25H80.4219V45ZM92.4688 45H97.6094L103.359 28.25H98.5938L95.1406 40.9688H95.0469L91.5469 28.25H86.6719L92.4688 45ZM111.984 45.3438C116.766 45.3438 119.078 42.5156 119.594 40.0469L119.641 39.875H115.453L115.422 39.9688C115.094 40.9062 113.953 41.9375 112.078 41.9375C109.75 41.9375 108.297 40.375 108.25 37.7031H119.781V36.2969C119.781 31.2344 116.703 27.9062 111.797 27.9062C106.891 27.9062 103.75 31.3125 103.75 36.6406V36.6562C103.75 42.0156 106.859 45.3438 111.984 45.3438ZM111.875 31.3125C113.766 31.3125 115.125 32.5156 115.406 34.8281H108.297C108.594 32.5625 110 31.3125 111.875 31.3125Z" fill="white"/>
<path fill-rule="evenodd" clip-rule="evenodd" d="M40.0003 51.2233C40.0003 52.2046 33.7278 53.0001 25.9904 53.0001C18.2529 53.0001 11.9805 52.2046 11.9805 51.2233C11.9805 50.2421 18.2529 49.4465 25.9904 49.4465C33.7278 49.4465 40.0003 50.2421 40.0003 51.2233Z" fill="#D04638"/>
<path fill-rule="evenodd" clip-rule="evenodd" d="M39.877 24.2216C39.3741 18.8367 36.498 14.4052 31.3279 11.0501C31.1641 10.9438 30.9389 11.014 30.8694 11.1914L30.3454 12.5282C30.3012 12.641 30.3299 12.7681 30.419 12.8533H30.4191C30.466 12.8957 35.1062 17.1304 34.5477 20.595C34.3902 21.5718 33.821 22.4063 32.851 23.0865C32.3759 23.4196 31.8456 23.6727 31.2898 23.859C29.9839 24.297 26.4262 25.6868 25.0698 28.207C25.0593 28.2267 25.0513 28.247 25.0457 28.2676C23.6159 27.7608 21.9566 27.4397 20.5162 27.8614C19.2546 28.231 18.3337 29.1184 17.779 30.4994C17.3992 31.4448 17.2556 32.5256 17.3521 33.7117C17.4245 34.6008 17.6111 35.6442 18.04 36.5861C14.7673 37.6768 13.2953 39.9312 12.6356 41.6797C11.8847 43.6704 11.9981 45.4024 12.0033 45.4753C12.0262 45.7919 12.0677 46.0941 12.1193 46.3885C12.117 46.4079 12.1166 46.4278 12.1185 46.4479C12.1201 46.466 12.2732 48.2659 11.3079 49.0836C10.8559 49.4665 10.205 49.5753 9.37412 49.4069C9.20678 49.3722 9.04222 49.4752 9.0068 49.6354C8.97129 49.7955 9.0783 49.9528 9.24563 49.9868C9.54365 50.0472 9.82495 50.0774 10.0889 50.0774C10.7406 50.0772 11.2867 49.8935 11.7188 49.5274C12.1973 49.122 12.4567 48.5538 12.5955 48.0123C12.8266 48.5455 13.1185 49.0299 13.4785 49.4583C13.7321 49.7471 13.7671 49.7804 13.9485 49.9516C14.2308 50.2157 14.5419 50.4556 14.884 50.6691C16.4591 51.6518 18.4798 51.9851 20.497 51.9851C24.1495 51.9851 27.7876 50.8927 28.7464 50.5826C29.2154 51.2948 30.0191 51.7526 30.9236 51.7896C31.2387 51.8025 31.5934 51.8112 31.976 51.8112C33.0686 51.8112 34.3874 51.7397 35.6502 51.4889C36.4758 51.3249 37.1596 50.8108 37.5263 50.0785C37.8943 49.3439 37.8841 48.509 37.4987 47.788C36.4753 45.8735 35.6345 42.3298 37.4404 36.3208C37.7013 35.4526 38.0275 34.5463 38.4378 33.55C38.7493 32.7936 39.2745 31.344 39.6176 29.4792C39.6605 29.3468 39.679 29.2659 39.6801 29.2604C39.6892 29.2177 39.6875 29.1756 39.6779 29.1358C39.9198 27.6866 40.0439 26.0091 39.877 24.2216Z" fill="#D04638"/>
<path fill-rule="evenodd" clip-rule="evenodd" d="M39.3618 26.3467V26.3479C39.3335 27.3688 39.2193 28.3321 39.0618 29.2119C38.934 29.6953 38.045 32.4053 34.4278 31.8219C34.5667 31.4631 34.8912 31.2209 34.8986 31.2149C35.0339 31.1174 35.0609 30.9339 34.9589 30.8045C34.858 30.6739 34.665 30.648 34.5285 30.7457C34.5015 30.7645 33.8597 31.2326 33.7637 31.9536C33.7072 32.3735 33.8425 32.7828 34.1658 33.1698C34.2261 33.2427 34.3158 33.2803 34.4056 33.2803C34.4732 33.2803 34.5408 33.2592 34.5974 33.2157C34.7302 33.1145 34.7524 32.9299 34.6467 32.8028C34.5372 32.6722 34.4609 32.5441 34.4155 32.4159C34.7683 32.4687 35.0991 32.4947 35.4077 32.4947C36.9471 32.4947 37.954 31.8901 38.6007 31.2032C38.3499 32.0877 38.0807 32.8146 37.8668 33.3344C37.4499 34.3484 37.1167 35.2716 36.8511 36.1585C35.0229 42.2429 35.8478 45.9149 36.8967 47.9474C36.9151 47.9839 36.9348 48.0203 36.9533 48.0556C37.2495 48.612 37.2569 49.2565 36.9729 49.8246C36.6901 50.3904 36.1626 50.7867 35.527 50.9125C33.883 51.2395 32.1322 51.2501 30.9507 51.2019C30.749 51.1937 30.5536 51.1583 30.369 51.0984C29.7691 50.9055 29.2834 50.4574 29.0608 49.861C28.2862 47.7745 28.0501 44.7588 28.0489 44.7282C28.0366 44.5658 27.8891 44.4436 27.7194 44.4564C27.551 44.4682 27.4231 44.6082 27.4354 44.7706C27.4452 44.8975 27.6777 47.8851 28.478 50.0469C26.8931 50.5433 19.291 52.7168 15.22 50.1763C14.8278 49.9316 14.4786 49.647 14.1737 49.3259C14.1737 49.3248 14.1725 49.3248 14.1725 49.3248C13.2565 48.3614 12.7351 47.0582 12.6183 45.4351C12.6171 45.4186 12.509 43.7366 13.2232 41.8595C13.9389 39.974 15.188 38.5744 16.9438 37.6805C17.3716 37.4629 17.8291 37.2747 18.3172 37.1171C18.6775 37.7263 19.1619 38.2662 19.8122 38.6544C20.4812 39.053 21.2669 39.2518 22.1644 39.2518C22.4472 39.2518 22.7423 39.2318 23.0472 39.1918H23.0496C23.7899 39.0954 24.5927 38.8826 25.4583 38.5532C25.6157 38.4932 25.6932 38.3226 25.6304 38.1721C25.5677 38.0204 25.3882 37.9463 25.2309 38.0075C23.0681 38.8308 21.3541 38.8802 20.1369 38.1556C18.5692 37.2205 18.091 35.1975 17.9668 33.6661C17.877 32.5676 18.0074 31.5737 18.3541 30.7104C18.8373 29.5072 19.6254 28.7379 20.6963 28.4239C23.7148 27.5394 28.076 30.4163 28.1191 30.4445C28.2591 30.5386 28.4498 30.5057 28.5469 30.3716C28.6441 30.2388 28.6108 30.0552 28.4706 29.9623C28.3759 29.8988 27.1894 29.1166 25.612 28.4815C25.6169 28.4756 25.6219 28.4697 25.6242 28.4626C26.0756 27.6323 26.8071 26.9277 27.6174 26.3467C29.1543 25.2434 30.9691 24.5872 31.6613 24.3613C31.8371 24.3036 32.2613 24.1272 32.3892 24.0602C34.0011 23.2192 34.9306 22.0842 35.1568 20.6846C35.7114 17.2441 31.8211 13.3498 30.99 12.5629L31.3084 11.7502C37.9516 16.2068 39.4872 21.8361 39.3618 26.3467Z" fill="white"/>
<path fill-rule="evenodd" clip-rule="evenodd" d="M30.5491 28.4505C30.5371 28.4505 30.525 28.4499 30.5129 28.4486C30.3443 28.4296 30.2236 28.2836 30.2433 28.1223C30.3076 27.5985 30.8137 26.6079 32.27 26.6079C32.4398 26.6079 32.5774 26.7395 32.5774 26.9019C32.5774 27.0643 32.4398 27.196 32.27 27.196C30.9905 27.196 30.8589 28.1501 30.854 28.1907C30.8357 28.3404 30.7028 28.4505 30.5491 28.4505Z" fill="#D12751"/>
<path fill-rule="evenodd" clip-rule="evenodd" d="M26.9319 33.4474C27.1154 32.8756 26.8642 32.26 26.3259 31.9557C24.7328 31.0549 21.5309 29.6814 20.8673 32.7242C20.8673 32.7242 19.8729 36.7423 23.1438 36.672C24.8163 36.636 26.2613 35.5372 26.7523 34.0072L26.9319 33.4474Z" fill="#FF7465"/>
<path fill-rule="evenodd" clip-rule="evenodd" d="M36.9721 49.8247C36.6892 50.3905 36.1618 50.7868 35.5262 50.9128C33.8823 51.2397 32.1313 51.2502 30.9498 51.202C30.7482 51.1938 30.5527 51.1585 30.3682 51.0986C30.5047 50.7598 31.181 49.3849 32.842 50.3893C32.842 50.3893 33.12 48.7733 35.1721 49.3978C35.1721 49.3978 35.4806 47.9487 36.8958 47.9475C36.9143 47.984 36.934 48.0205 36.9524 48.0557C37.2486 48.6121 37.2561 49.2566 36.9721 49.8247Z" fill="#F5E7DF"/>
<path fill-rule="evenodd" clip-rule="evenodd" d="M28.4685 29.9623C28.3738 29.8988 27.1873 29.1166 25.6099 28.4815C25.6147 28.4756 25.6197 28.4697 25.6221 28.4626C26.0733 27.6322 26.8049 26.9277 27.6152 26.3467C26.3734 28.2026 28.4685 29.9623 28.4685 29.9623Z" fill="#F5E7DF"/>
<path fill-rule="evenodd" clip-rule="evenodd" d="M23.0482 39.1918C23.0482 39.1918 19.8416 40.5479 16.9424 37.6804C17.3702 37.4628 17.8276 37.2746 18.3157 37.1169C18.6759 37.7263 19.1604 38.2661 19.8108 38.6542C20.4797 39.053 21.2654 39.2518 22.1629 39.2518C22.4457 39.2518 22.7408 39.2318 23.0458 39.1918H23.0482Z" fill="#F5E7DF"/>
<path fill-rule="evenodd" clip-rule="evenodd" d="M39.3608 26.3483C39.3325 27.3692 39.2182 28.3324 39.0607 29.2123C38.9329 29.6957 38.0439 32.4056 34.4268 31.8223C34.4268 31.8223 38.7658 31.1436 39.3608 26.3483Z" fill="#F5E7DF"/>
<path fill-rule="evenodd" clip-rule="evenodd" d="M28.4767 50.0467C26.8918 50.543 19.2897 52.7166 15.2186 50.1761C14.8265 49.9313 14.4773 49.6468 14.1724 49.3256C17.904 51.1981 22.3119 50.4337 24.7292 48.7788C27.0333 47.2014 27.4341 44.7703 27.4341 44.7703C27.444 44.8973 27.6763 47.8848 28.4767 50.0467Z" fill="#F5E7DF"/>
</svg>
